<?xml version="1.0" standalone="no"?>
<!DOCTYPE svg PUBLIC "-//W3C//DTD SVG 20010904//EN"
 "http://www.w3.org/TR/2001/REC-SVG-20010904/DTD/svg10.dtd">
<svg version="1.0" xmlns="http://www.w3.org/2000/svg"
 width="1550.000000pt" height="1550.000000pt" viewBox="0 0 1550.000000 1550.000000"
 preserveAspectRatio="xMidYMid meet">
<metadata>
Created by potrace 1.11, written by Peter Selinger 2001-2013
</metadata>
<g transform="translate(0.000000,1550.000000) scale(0.100000,-0.100000)"
fill="#000000" stroke="none">
<path d="M7765 14765 c-16 -8 -37 -19 -45 -24 -21 -13 -141 -67 -166 -75 -12
-4 -29 -15 -39 -26 -10 -11 -26 -20 -35 -20 -10 0 -29 -9 -43 -20 -14 -12 -41
-26 -59 -32 -18 -6 -46 -22 -61 -35 -16 -12 -33 -23 -38 -23 -6 0 -25 -11 -43
-25 -18 -14 -40 -25 -48 -25 -9 0 -21 -7 -29 -16 -7 -8 -29 -24 -48 -35 -20
-11 -52 -30 -71 -42 -20 -12 -51 -31 -69 -42 -18 -11 -46 -30 -61 -42 -15 -13
-32 -23 -36 -23 -5 0 -17 -9 -29 -20 -11 -11 -45 -36 -75 -56 -30 -20 -59 -42
-65 -49 -5 -6 -21 -18 -35 -25 -23 -12 -74 -50 -122 -90 -9 -8 -31 -26 -48
-40 -17 -14 -41 -34 -53 -46 -12 -11 -29 -25 -38 -30 -59 -33 -399 -357 -549
-523 -91 -101 -95 -105 -296 -353 -15 -20 -63 -91 -80 -120 -6 -10 -20 -29
-31 -41 -18 -21 -32 -41 -95 -142 -13 -22 -36 -58 -51 -80 -14 -22 -31 -51
-37 -65 -6 -14 -24 -47 -40 -75 -16 -27 -37 -66 -46 -85 -9 -19 -20 -42 -25
-50 -5 -8 -16 -31 -24 -50 -17 -38 -35 -78 -86 -183 -30 -63 -35 -68 -75 -78
-24 -6 -49 -17 -55 -25 -6 -8 -30 -19 -52 -25 -22 -6 -57 -22 -76 -35 -20 -13
-42 -24 -50 -24 -8 0 -24 -8 -35 -18 -12 -10 -37 -25 -56 -32 -19 -8 -46 -22
-59 -32 -13 -10 -29 -18 -36 -18 -7 0 -19 -7 -26 -16 -8 -9 -32 -25 -54 -34
-22 -9 -46 -25 -54 -34 -7 -9 -19 -16 -25 -16 -6 -1 -27 -14 -46 -30 -19 -17
-39 -30 -46 -30 -6 0 -19 -10 -30 -21 -10 -12 -28 -25 -39 -30 -11 -5 -40 -25
-65 -44 -25 -20 -60 -45 -78 -56 -17 -12 -32 -25 -32 -30 0 -5 -8 -12 -17 -16
-10 -3 -27 -14 -38 -24 -11 -10 -56 -48 -100 -85 -152 -129 -443 -417 -566
-561 -8 -10 -33 -39 -55 -64 -21 -25 -49 -59 -62 -75 -12 -16 -56 -71 -97
-122 -41 -52 -75 -97 -75 -101 0 -5 -13 -22 -30 -39 -16 -18 -30 -39 -30 -47
0 -8 -4 -15 -9 -15 -6 0 -27 -26 -47 -57 -20 -32 -43 -67 -51 -78 -76 -113
-93 -141 -93 -151 0 -7 -6 -17 -14 -21 -12 -7 -25 -28 -75 -122 -8 -14 -25
-39 -38 -54 -12 -16 -23 -35 -23 -44 0 -8 -11 -28 -25 -45 -14 -16 -25 -38
-25 -49 0 -10 -9 -27 -20 -36 -11 -10 -25 -33 -31 -53 -6 -19 -17 -42 -24 -50
-7 -8 -18 -32 -24 -52 -7 -20 -19 -42 -27 -48 -7 -7 -14 -18 -14 -24 0 -6 -13
-38 -30 -71 -16 -33 -30 -64 -30 -70 0 -5 -9 -28 -20 -50 -18 -39 -18 -41 0
-70 10 -16 21 -44 25 -62 3 -17 12 -37 20 -43 8 -6 21 -34 30 -61 9 -27 20
-49 25 -49 5 0 14 -17 20 -37 7 -21 22 -54 34 -73 28 -46 51 -86 76 -135 11
-22 36 -65 55 -95 19 -30 43 -71 55 -90 80 -134 140 -226 177 -271 17 -22 35
-48 38 -59 4 -11 10 -20 15 -20 5 0 11 -8 14 -18 3 -9 18 -32 33 -49 16 -17
39 -48 53 -68 31 -45 84 -113 108 -140 10 -11 61 -72 114 -135 53 -63 137
-158 187 -210 50 -52 91 -98 91 -102 0 -5 6 -8 13 -8 8 0 19 -11 25 -25 6 -14
15 -25 20 -25 4 0 44 -35 88 -77 83 -80 156 -145 234 -208 25 -19 57 -46 71
-58 15 -12 39 -31 53 -42 15 -11 40 -32 57 -47 16 -16 33 -28 37 -28 4 0 20
-11 36 -25 16 -14 34 -25 41 -25 6 0 22 -11 35 -25 13 -14 28 -25 34 -25 6 -1
27 -14 46 -30 19 -17 39 -30 46 -30 6 0 19 -9 29 -20 10 -11 21 -20 26 -20 4
0 36 -18 70 -40 35 -22 80 -48 99 -56 19 -9 47 -24 61 -34 14 -10 37 -22 52
-25 14 -4 31 -13 37 -20 7 -8 28 -19 48 -26 20 -6 44 -17 52 -24 8 -7 33 -18
55 -25 22 -7 47 -19 56 -27 9 -7 33 -17 54 -20 41 -7 74 -49 106 -135 9 -26
24 -55 33 -63 9 -9 16 -22 16 -30 0 -12 58 -129 105 -210 12 -22 34 -60 49
-85 14 -25 36 -64 48 -87 12 -24 25 -43 30 -43 4 0 17 -17 28 -37 11 -21 36
-58 55 -83 19 -25 38 -52 42 -60 3 -8 18 -29 32 -47 14 -17 37 -48 51 -69 14
-20 37 -49 53 -65 15 -15 27 -31 27 -35 0 -5 9 -17 19 -29 46 -48 70 -76 84
-96 21 -29 189 -208 267 -285 190 -184 251 -240 370 -336 25 -20 58 -48 73
-62 16 -14 31 -26 34 -26 3 0 31 -22 62 -48 31 -26 69 -57 85 -67 16 -11 39
-27 51 -35 23 -15 46 -33 112 -82 20 -16 42 -28 49 -28 8 0 14 -5 14 -10 0 -6
16 -18 35 -27 19 -9 35 -21 35 -25 0 -5 19 -18 43 -28 23 -11 60 -34 82 -50
22 -17 82 -54 134 -82 51 -29 114 -65 140 -80 25 -15 84 -46 131 -69 47 -23
87 -45 90 -49 3 -3 26 -14 52 -24 25 -9 52 -24 58 -32 7 -7 20 -14 30 -14 9 0
39 -12 66 -26 83 -45 146 -36 284 41 14 8 45 24 70 35 24 12 47 25 50 29 3 5
21 13 41 20 21 7 47 21 60 32 12 11 34 22 48 25 14 4 31 12 36 19 6 7 26 20
45 29 19 9 60 32 90 51 30 19 69 42 85 50 31 17 89 55 115 77 8 7 32 22 53 32
20 11 37 22 37 25 0 4 16 15 35 25 19 11 35 22 35 26 0 4 13 13 29 20 16 6 39
22 52 36 12 13 27 24 32 24 6 0 17 7 26 15 9 8 77 63 151 122 223 177 303 248
514 458 117 117 318 343 384 433 9 13 24 31 32 40 8 10 31 39 50 65 19 26 47
64 63 84 15 20 27 42 27 49 0 8 4 14 8 14 8 0 69 92 163 245 13 22 30 49 37
60 7 11 22 40 34 65 11 25 24 46 29 48 4 2 13 20 20 40 7 20 20 48 30 61 11
13 19 29 19 36 0 7 14 37 30 68 17 31 30 65 30 75 0 11 9 31 20 44 11 14 24
37 29 50 7 19 19 27 46 31 21 3 45 13 54 20 9 8 34 20 56 27 22 7 47 18 55 25
8 7 56 32 105 56 50 23 93 47 96 51 6 9 67 43 134 76 22 11 49 29 59 41 11 11
24 21 29 21 9 0 76 43 147 95 15 11 40 29 56 40 29 20 100 73 125 93 8 6 28
22 44 36 17 14 71 58 120 99 50 41 122 105 160 141 154 148 235 227 235 232 0
2 24 28 53 57 93 95 307 348 307 364 0 3 10 16 23 28 42 42 82 93 112 144 17
28 33 51 37 51 4 0 15 14 23 31 9 16 25 39 36 50 10 10 19 26 19 34 0 8 11 25
25 37 14 12 25 27 25 33 0 7 14 29 30 50 17 21 30 43 30 50 0 6 9 20 20 30 11
10 20 24 20 31 0 7 11 26 25 42 14 17 25 35 25 40 0 6 11 23 24 39 13 15 27
39 31 53 4 14 13 31 19 39 12 15 20 29 119 225 37 73 67 136 67 140 0 4 9 19
20 33 11 14 20 33 20 42 0 9 12 38 26 65 l26 50 -27 55 c-15 31 -34 67 -41 81
-8 14 -21 41 -29 60 -9 19 -20 42 -25 50 -6 8 -15 25 -20 38 -19 43 -32 68
-65 127 -19 33 -42 77 -51 98 -9 20 -21 37 -25 37 -4 0 -18 19 -29 43 -41 82
-65 124 -80 140 -8 8 -28 39 -45 67 -16 28 -42 67 -57 87 -15 19 -30 43 -33
54 -4 10 -10 19 -15 19 -5 0 -11 9 -15 20 -3 11 -22 39 -41 62 -49 61 -59 74
-119 158 -29 41 -65 86 -79 100 -14 14 -26 30 -26 34 0 5 -10 19 -22 31 -13
12 -36 37 -51 56 -57 70 -93 111 -144 165 -29 30 -53 59 -53 64 0 5 -9 11 -19
15 -11 3 -23 15 -26 25 -3 10 -15 22 -26 25 -10 4 -19 10 -19 15 0 9 -125 140
-133 140 -3 0 -27 21 -54 48 -27 26 -73 67 -102 92 -29 25 -70 61 -90 80 -21
19 -57 49 -81 65 -24 17 -54 39 -65 50 -12 11 -33 28 -46 38 -13 10 -41 31
-62 47 -21 16 -47 32 -58 35 -10 4 -19 11 -19 16 0 5 -16 17 -35 26 -19 9 -35
20 -35 24 0 5 -20 17 -45 28 -25 11 -45 24 -45 29 0 6 -14 15 -32 21 -17 6
-37 20 -45 30 -7 11 -26 22 -42 26 -16 3 -37 15 -46 25 -9 10 -30 22 -46 25
-16 4 -32 11 -35 17 -3 5 -25 18 -48 29 -22 11 -52 26 -66 33 -14 8 -56 29
-95 46 -38 18 -86 40 -105 50 -19 10 -49 21 -66 24 -21 5 -36 17 -48 39 -9 18
-23 43 -30 57 -16 30 -59 121 -81 170 -25 56 -56 114 -70 130 -7 8 -18 32 -25
53 -6 21 -18 41 -26 44 -7 2 -18 20 -24 39 -6 19 -15 34 -20 34 -5 0 -18 20
-29 45 -11 25 -25 45 -31 45 -6 0 -15 11 -20 25 -5 14 -29 51 -52 82 -24 31
-61 82 -83 113 -190 269 -590 686 -882 919 -60 47 -115 91 -123 98 -48 39 -88
71 -110 86 -27 19 -78 54 -126 89 -18 13 -58 40 -90 62 -33 21 -70 47 -84 57
-14 10 -38 25 -55 32 -16 8 -36 21 -44 30 -7 10 -19 17 -26 17 -8 0 -26 11
-42 24 -15 13 -39 27 -53 31 -14 4 -31 16 -38 26 -6 9 -25 20 -41 24 -16 3
-35 13 -42 21 -6 8 -30 23 -53 34 -66 33 -100 50 -116 60 -24 15 -180 90 -186
90 -3 0 -18 9 -33 19 -15 11 -40 23 -57 27 -16 4 -40 16 -54 26 -35 25 -108
32 -145 13z m99 -680 c8 -9 30 -21 48 -27 18 -6 42 -19 53 -28 11 -10 30 -21
43 -25 12 -3 22 -10 22 -15 0 -5 14 -17 32 -26 18 -9 38 -23 46 -31 8 -7 27
-20 43 -28 16 -9 29 -20 29 -26 0 -5 8 -12 18 -16 9 -4 31 -18 48 -32 17 -14
48 -39 69 -56 21 -16 51 -42 66 -56 15 -15 31 -28 36 -30 5 -2 24 -23 43 -46
18 -24 39 -43 47 -43 7 0 19 -11 25 -25 6 -14 20 -25 30 -25 10 0 22 -8 25
-17 4 -10 39 -49 78 -88 77 -76 135 -147 135 -163 0 -6 34 -44 75 -85 41 -41
75 -78 75 -81 0 -11 74 -116 82 -116 4 0 15 -16 24 -35 9 -19 20 -35 25 -35 5
0 16 -18 25 -40 9 -22 20 -40 25 -40 5 0 15 -12 21 -27 7 -16 23 -41 35 -56
13 -16 23 -34 23 -41 0 -7 9 -21 20 -31 11 -10 25 -35 32 -56 6 -21 19 -46 30
-55 10 -10 18 -27 18 -40 0 -12 11 -31 24 -41 13 -11 27 -33 30 -50 4 -18 16
-43 26 -56 10 -13 22 -37 26 -53 4 -16 15 -38 24 -49 10 -11 23 -39 29 -61 6
-23 17 -47 25 -53 7 -6 16 -34 20 -61 4 -32 15 -59 31 -76 14 -15 25 -38 25
-51 0 -13 12 -49 26 -78 14 -30 23 -59 20 -64 -3 -4 -23 -11 -44 -15 -21 -3
-47 -15 -56 -25 -10 -11 -32 -23 -50 -27 -17 -3 -40 -14 -51 -24 -11 -10 -37
-23 -57 -30 -21 -6 -41 -17 -45 -24 -5 -7 -24 -18 -44 -25 -20 -6 -45 -21 -54
-31 -10 -11 -26 -20 -35 -20 -10 0 -34 -13 -55 -30 -21 -16 -42 -30 -47 -30
-6 0 -23 -11 -40 -25 -16 -14 -35 -25 -42 -25 -7 0 -22 -11 -34 -25 -12 -14
-28 -25 -36 -25 -8 0 -28 -11 -44 -25 -17 -14 -35 -25 -41 -25 -6 0 -18 -11
-27 -25 -9 -14 -22 -25 -30 -25 -8 0 -43 -25 -80 -56 -36 -31 -71 -54 -77 -51
-7 2 -25 43 -40 91 -18 56 -33 86 -43 86 -18 0 -29 24 -100 220 -37 101 -76
186 -111 244 -65 105 -168 325 -249 530 -45 113 -64 150 -81 157 -12 4 -34 29
-48 54 -15 25 -29 44 -31 42 -6 -6 24 -165 46 -237 10 -36 28 -123 39 -195 11
-71 36 -181 55 -243 20 -63 36 -134 36 -158 0 -25 4 -54 10 -64 11 -21 116
-503 131 -600 5 -36 19 -98 31 -138 19 -64 20 -77 8 -112 -10 -29 -11 -76 -7
-178 4 -77 9 -146 13 -156 8 -22 47 -20 68 3 10 10 32 22 49 25 18 3 53 17 79
31 26 14 58 25 72 25 13 0 37 11 53 24 15 13 46 26 68 30 21 4 51 16 65 26 14
10 44 21 65 25 22 4 52 16 67 26 16 11 51 24 80 29 28 6 59 16 67 24 9 8 41
19 71 25 30 6 69 20 85 31 17 11 44 20 60 20 17 0 45 9 63 20 19 12 55 29 80
39 26 11 83 33 127 51 213 86 522 166 670 174 61 3 129 11 152 16 58 14 159
-2 224 -34 28 -15 149 -102 268 -194 300 -232 353 -272 366 -272 7 0 20 -9 30
-20 10 -11 22 -20 28 -20 5 0 22 -11 39 -25 16 -14 38 -25 48 -25 10 0 21 -4
25 -10 3 -5 38 -31 78 -57 40 -26 78 -56 85 -65 7 -10 19 -18 27 -18 8 0 19
-9 25 -20 6 -11 29 -28 51 -36 21 -9 39 -20 39 -26 0 -5 16 -16 35 -24 19 -8
35 -20 35 -28 0 -8 11 -17 24 -20 13 -3 26 -15 29 -27 3 -11 15 -23 26 -26 12
-3 21 -9 21 -13 0 -5 8 -11 18 -14 9 -3 33 -19 52 -36 19 -16 38 -30 42 -30 4
0 81 -74 170 -164 162 -163 288 -305 288 -325 0 -5 9 -12 19 -16 11 -3 22 -19
26 -35 4 -17 12 -33 20 -37 15 -10 85 -100 85 -111 0 -5 11 -18 25 -30 14 -12
25 -28 25 -36 0 -8 12 -29 28 -47 38 -46 38 -122 -1 -168 -15 -18 -27 -41 -27
-51 0 -10 -11 -25 -25 -34 -14 -9 -25 -23 -25 -30 0 -8 -6 -16 -14 -19 -8 -3
-23 -25 -34 -49 -10 -24 -26 -49 -35 -57 -10 -7 -17 -18 -17 -24 0 -5 -10 -20
-22 -32 -13 -13 -32 -36 -43 -51 -11 -15 -32 -39 -46 -53 -14 -14 -30 -33 -35
-42 -24 -43 -173 -202 -228 -244 -20 -15 -36 -33 -36 -41 0 -7 -8 -18 -18 -23
-10 -5 -36 -26 -57 -46 -22 -20 -60 -53 -84 -73 -51 -44 -108 -93 -137 -122
-12 -11 -26 -20 -31 -20 -5 0 -18 -9 -29 -21 -10 -12 -32 -28 -47 -36 -29 -14
-49 -30 -91 -70 -13 -13 -34 -23 -48 -23 -15 0 -32 -11 -46 -30 -13 -16 -29
-30 -37 -30 -8 0 -20 -9 -27 -19 -7 -10 -29 -26 -48 -36 -68 -32 -117 -60
-145 -82 -15 -13 -33 -23 -40 -23 -7 0 -18 -7 -25 -14 -6 -8 -28 -20 -48 -27
-20 -6 -46 -20 -57 -29 -11 -10 -33 -22 -50 -26 -16 -3 -39 -15 -50 -24 -11
-10 -39 -23 -62 -29 -23 -7 -49 -19 -58 -27 -9 -9 -35 -21 -58 -26 -23 -5 -49
-16 -58 -24 -9 -8 -42 -21 -75 -30 -32 -8 -65 -21 -74 -28 -8 -7 -32 -17 -54
-20 -33 -6 -42 -4 -67 20 -16 16 -34 46 -40 69 -6 22 -16 45 -23 50 -7 6 -18
27 -25 47 -7 20 -18 42 -26 48 -8 6 -19 28 -26 48 -6 20 -18 45 -26 54 -17 19
-41 62 -73 126 -12 23 -25 42 -30 42 -6 0 -16 15 -23 33 -15 35 -58 103 -80
127 -8 8 -22 31 -32 50 -10 19 -24 39 -31 43 -8 4 -14 14 -14 22 0 8 -8 20
-19 27 -10 7 -26 27 -35 43 -28 50 -67 100 -76 98 -5 -2 -12 7 -15 18 -4 11
-19 33 -33 49 -15 17 -37 42 -49 57 -111 138 -389 412 -454 448 -11 6 -26 21
-35 33 -8 12 -21 22 -29 22 -8 0 -19 9 -25 19 -5 11 -21 26 -34 33 -14 7 -52
32 -86 56 -34 23 -73 42 -86 42 -22 0 -23 -3 -18 -47 4 -29 14 -55 25 -65 11
-9 25 -32 31 -50 6 -18 18 -42 28 -53 9 -11 22 -39 28 -61 7 -23 18 -44 26
-47 8 -3 17 -24 21 -47 4 -22 15 -49 25 -58 10 -9 21 -30 25 -47 10 -46 27
-85 36 -85 4 0 11 -17 14 -37 4 -21 15 -49 24 -63 10 -14 21 -43 25 -65 4 -21
17 -52 28 -68 12 -16 25 -50 30 -75 4 -25 17 -55 27 -66 11 -12 23 -43 26 -70
4 -27 15 -56 25 -66 9 -9 22 -43 28 -75 7 -32 18 -66 26 -74 8 -9 19 -43 25
-75 6 -33 17 -66 25 -75 7 -9 21 -38 29 -66 9 -27 32 -95 52 -150 20 -55 47
-138 61 -185 14 -47 41 -133 59 -192 19 -59 35 -122 35 -140 1 -18 7 -62 15
-98 8 -36 14 -98 15 -138 0 -65 -3 -75 -25 -96 -13 -12 -38 -52 -54 -88 -19
-43 -42 -75 -65 -93 -23 -18 -36 -36 -36 -51 0 -12 -11 -44 -25 -70 -14 -26
-25 -57 -25 -69 0 -12 -9 -34 -20 -48 -11 -14 -23 -40 -27 -58 -3 -18 -17 -48
-30 -67 -12 -19 -23 -42 -23 -52 0 -9 -9 -25 -20 -35 -11 -10 -23 -34 -26 -54
-4 -20 -15 -45 -24 -56 -10 -11 -22 -33 -26 -50 -4 -16 -18 -43 -31 -58 -12
-16 -23 -35 -23 -44 0 -8 -11 -28 -25 -45 -14 -16 -25 -35 -25 -42 0 -7 -9
-21 -20 -31 -10 -9 -24 -33 -30 -51 -7 -19 -16 -34 -21 -34 -5 0 -18 -19 -30
-42 -12 -23 -28 -48 -35 -56 -8 -7 -14 -17 -14 -21 0 -4 -23 -32 -50 -62 -28
-29 -53 -65 -57 -79 -3 -14 -15 -31 -25 -38 -10 -7 -18 -19 -18 -25 0 -7 -12
-24 -27 -38 -16 -14 -39 -40 -53 -58 -86 -114 -186 -224 -212 -234 -10 -3 -18
-11 -18 -17 0 -13 -168 -181 -225 -225 -41 -32 -87 -72 -121 -105 -12 -11 -26
-20 -32 -20 -6 0 -17 -8 -24 -18 -7 -9 -43 -37 -80 -61 -37 -24 -69 -50 -72
-58 -3 -7 -15 -13 -26 -13 -30 0 -60 -18 -60 -35 0 -8 -11 -17 -24 -21 -14 -3
-32 -14 -42 -25 -22 -25 -55 -24 -87 1 -14 11 -30 20 -35 20 -6 0 -23 11 -39
23 -15 13 -40 30 -55 38 -15 8 -54 33 -87 57 -34 23 -65 42 -70 42 -5 0 -16
11 -25 25 -9 14 -23 25 -31 25 -8 0 -15 9 -15 20 0 15 -7 20 -25 20 -15 0 -31
9 -41 25 -9 14 -21 25 -26 25 -9 0 -127 98 -174 144 -12 12 -38 36 -58 54 -20
18 -36 37 -36 42 0 6 -4 10 -8 10 -10 0 -32 22 -97 96 -27 31 -63 72 -80 90
-16 19 -41 48 -55 65 -14 17 -37 42 -52 57 -16 15 -28 32 -28 39 0 7 -9 17
-20 23 -11 6 -20 17 -20 25 0 7 -13 27 -30 43 -16 17 -30 35 -30 41 0 6 -11
21 -25 33 -14 12 -25 26 -25 31 0 5 -10 22 -22 37 -13 15 -31 40 -40 56 -25
42 -40 65 -65 101 -13 17 -23 36 -23 42 0 5 -11 22 -24 38 -14 16 -28 42 -31
56 -4 15 -15 33 -25 40 -9 6 -23 30 -30 52 -7 22 -19 44 -26 48 -8 4 -19 28
-25 52 -6 24 -20 51 -30 61 -10 9 -19 28 -19 41 0 12 -10 33 -21 44 -12 12
-26 38 -31 58 -6 20 -32 59 -58 86 -26 28 -57 72 -68 99 -12 26 -40 68 -62 93
-22 25 -40 52 -40 59 0 8 -12 24 -26 37 -14 12 -42 51 -61 87 -20 36 -48 78
-62 93 -24 26 -26 35 -25 115 1 64 8 108 28 167 14 44 26 92 26 107 0 44 27
113 120 308 49 102 109 237 133 300 62 161 134 317 163 355 13 18 24 36 24 42
0 5 9 20 19 32 11 12 22 44 26 72 4 27 11 49 16 49 14 0 39 64 39 98 0 16 8
37 19 46 10 9 22 35 25 58 4 22 15 51 25 64 10 13 22 41 26 61 3 21 15 47 25
58 10 11 21 36 25 55 4 19 15 44 25 55 10 11 21 36 25 55 4 19 15 44 25 55 10
11 21 36 25 55 4 19 16 45 27 56 12 13 20 38 21 65 2 42 1 44 -23 40 -13 -1
-35 -14 -47 -27 -12 -13 -26 -24 -31 -24 -11 0 -75 -49 -170 -130 -16 -14 -46
-38 -66 -55 -104 -84 -386 -379 -386 -403 0 -5 -11 -17 -25 -26 -14 -9 -25
-23 -25 -30 0 -8 -11 -21 -25 -30 -14 -9 -25 -21 -25 -26 0 -5 -25 -35 -55
-67 -30 -32 -55 -64 -55 -70 0 -7 -9 -18 -20 -25 -11 -7 -20 -23 -20 -36 0
-16 -7 -26 -21 -29 -12 -4 -22 -17 -26 -35 -3 -16 -16 -37 -29 -47 -13 -10
-24 -28 -24 -39 0 -11 -10 -27 -23 -35 -13 -8 -29 -33 -35 -55 -7 -22 -19 -45
-27 -52 -8 -7 -15 -20 -15 -29 0 -10 -11 -32 -25 -51 -14 -19 -25 -39 -25 -46
0 -6 -9 -23 -20 -37 -12 -14 -26 -41 -32 -59 -6 -18 -19 -41 -29 -51 -9 -10
-20 -34 -23 -52 -4 -18 -13 -38 -21 -45 -8 -7 -19 -29 -25 -49 -5 -20 -21 -49
-36 -64 -23 -25 -30 -28 -68 -21 -22 3 -51 14 -63 24 -13 10 -43 21 -67 24
-24 4 -54 15 -65 25 -12 11 -38 22 -59 26 -20 4 -45 15 -54 25 -9 9 -37 21
-61 24 -25 4 -51 13 -57 21 -6 8 -28 19 -48 26 -20 6 -48 20 -62 29 -14 10
-36 21 -50 25 -14 4 -34 15 -45 25 -11 10 -31 21 -45 25 -14 4 -35 18 -47 31
-12 13 -33 24 -46 24 -14 0 -31 7 -38 16 -8 9 -33 25 -56 35 -24 10 -43 23
-43 28 0 5 -10 13 -22 17 -13 4 -36 17 -51 30 -16 13 -33 24 -39 24 -5 0 -23
10 -38 23 -16 12 -45 33 -65 47 -83 58 -116 83 -193 147 -194 161 -248 208
-260 224 -7 10 -19 19 -26 19 -7 0 -18 11 -24 25 -6 14 -18 25 -27 25 -8 0
-15 4 -15 10 0 5 -19 29 -43 52 -24 24 -87 95 -140 158 -54 63 -105 123 -114
132 -9 10 -23 28 -32 41 -29 44 -70 102 -100 142 -17 22 -38 57 -47 78 -9 20
-22 37 -29 37 -15 0 -25 31 -25 82 0 24 8 46 24 65 14 16 28 42 32 57 3 15 12
30 19 33 7 2 19 18 25 34 7 16 16 29 20 29 9 0 90 118 90 131 0 4 9 13 20 19
11 6 20 16 20 23 0 6 9 20 20 32 11 11 36 40 56 65 64 80 128 154 157 180 15
13 27 30 27 37 0 7 4 13 9 13 6 0 47 37 93 83 46 45 106 100 133 122 27 22 57
47 66 55 9 8 30 26 45 39 16 12 49 41 74 63 25 22 59 46 75 55 17 8 39 24 50
34 38 36 83 69 94 69 5 0 25 13 43 29 18 15 43 31 56 35 12 4 22 11 22 17 0 5
17 16 37 24 21 9 45 25 55 35 11 11 29 20 42 20 12 0 33 11 46 25 13 14 28 25
33 25 5 0 21 9 37 20 31 22 110 65 290 157 68 35 138 76 155 93 56 54 358 170
404 155 11 -3 71 -8 133 -10 171 -5 407 -24 465 -35 28 -6 57 -17 63 -25 6 -8
37 -19 68 -25 61 -13 187 -63 212 -86 8 -7 44 -17 79 -23 35 -6 71 -17 81 -26
9 -8 39 -18 66 -21 27 -3 61 -14 76 -25 15 -10 46 -21 70 -25 24 -3 56 -15 73
-27 16 -11 51 -24 78 -28 27 -5 57 -15 67 -24 9 -8 37 -19 63 -24 25 -4 53
-15 61 -24 9 -9 40 -21 70 -27 30 -6 60 -18 67 -26 6 -8 29 -17 50 -20 21 -4
49 -15 60 -25 24 -21 45 -24 54 -9 10 16 35 291 28 303 -3 6 -1 7 5 3 9 -5 12
12 12 63 0 38 4 72 9 75 4 3 11 34 15 68 4 35 16 97 26 138 10 41 24 107 30
145 7 39 22 115 35 170 51 220 95 447 110 570 9 72 30 189 47 260 37 160 58
280 57 320 0 29 -1 28 -20 -15 -11 -25 -26 -52 -34 -60 -7 -8 -47 -91 -89
-185 -42 -93 -99 -215 -126 -270 -27 -55 -68 -147 -91 -205 -47 -120 -149
-424 -149 -445 0 -8 -18 -66 -39 -128 -21 -63 -45 -139 -52 -170 -6 -32 -14
-57 -16 -57 -5 0 -31 21 -58 48 -12 12 -26 22 -30 22 -4 0 -21 12 -39 26 -67
55 -109 84 -122 84 -7 0 -18 9 -24 20 -6 11 -18 20 -26 20 -8 0 -25 11 -37 24
-13 14 -35 28 -50 31 -15 4 -32 15 -37 25 -6 10 -20 22 -32 26 -13 3 -30 12
-38 19 -18 16 -91 57 -146 84 -23 11 -45 24 -48 29 -3 6 -22 16 -42 22 -20 7
-45 21 -55 31 -11 11 -27 19 -37 19 -10 0 -33 11 -52 25 -19 14 -39 25 -44 25
-6 0 -41 15 -79 33 -65 31 -68 33 -63 62 16 96 31 155 38 155 12 0 38 64 38
93 0 13 9 34 19 46 10 12 22 38 26 59 4 20 15 46 25 57 10 11 21 36 25 55 4
19 15 44 25 55 10 11 21 35 25 53 4 18 17 40 31 48 18 12 24 25 24 50 0 21 6
37 15 40 8 3 19 22 26 42 6 21 18 45 26 54 16 18 41 61 72 124 12 23 27 44 35
47 7 3 17 18 20 33 4 16 16 34 27 42 10 7 19 19 19 27 0 8 14 28 30 45 17 17
30 36 30 44 0 7 11 23 25 36 14 13 25 28 25 34 0 6 9 19 20 31 11 11 60 70
109 131 82 103 110 137 140 168 6 6 17 17 24 24 61 68 253 252 282 272 20 14
61 49 91 78 29 28 58 52 63 52 5 0 16 8 23 19 7 10 27 25 43 33 17 9 39 25 49
37 11 12 25 21 32 21 7 0 18 9 24 20 6 11 17 20 25 20 7 0 26 11 42 24 15 13
45 31 66 39 20 9 37 21 37 26 0 17 57 13 74 -4z"/>
<path d="M10188 10966 c-43 -19 -91 -44 -108 -56 -46 -33 -207 -214 -316 -357
-135 -177 -225 -281 -344 -398 -97 -95 -190 -207 -190 -230 0 -5 -14 -37 -30
-70 -17 -33 -30 -66 -30 -73 0 -8 -8 -25 -19 -38 -10 -13 -22 -41 -26 -61 -4
-21 -15 -43 -25 -50 -10 -7 -21 -29 -24 -48 -4 -20 -15 -44 -25 -54 -10 -10
-21 -37 -25 -59 -3 -23 -11 -42 -16 -42 -14 0 -27 -29 -35 -77 -6 -39 -5 -43
13 -43 11 0 33 11 49 24 15 12 39 29 52 36 32 17 161 122 161 132 0 4 17 16
38 27 20 11 55 36 77 56 21 20 47 41 57 46 10 5 18 15 18 21 0 6 24 34 53 62
66 66 199 212 212 235 10 17 31 41 73 85 12 13 22 28 22 34 0 6 8 16 19 21 10
6 24 24 31 40 6 16 18 32 26 35 7 3 20 21 28 41 8 19 20 35 25 35 6 0 17 16
25 35 8 19 19 35 24 35 5 0 15 15 23 33 7 17 21 43 31 57 11 14 32 42 49 64
16 21 29 47 29 56 0 10 7 23 16 31 15 13 33 42 74 125 11 23 26 47 34 53 8 6
17 27 20 46 4 19 15 39 26 45 11 6 21 26 25 51 4 22 13 43 20 45 20 8 36 59
22 73 -20 20 -81 11 -159 -23z"/>
<path d="M5397 10898 c-16 -12 -17 -16 -1 -61 9 -27 23 -51 30 -54 8 -3 14
-13 14 -23 0 -9 13 -37 30 -61 16 -24 30 -49 30 -55 0 -6 7 -18 17 -25 9 -8
25 -33 35 -57 11 -24 26 -46 34 -49 8 -3 14 -13 14 -23 0 -9 13 -34 30 -55 16
-20 32 -45 35 -56 4 -10 10 -19 15 -19 5 0 18 -20 29 -45 11 -25 24 -45 29
-45 5 0 14 -11 20 -25 6 -13 18 -32 27 -42 9 -10 42 -52 72 -93 31 -41 64 -84
74 -95 10 -11 33 -36 51 -56 18 -20 44 -51 58 -69 22 -30 239 -249 309 -312
16 -16 34 -28 39 -28 5 0 17 -11 26 -25 9 -14 22 -25 29 -25 8 0 23 -10 35
-22 47 -50 150 -128 168 -128 8 0 21 -11 30 -25 19 -28 61 -34 71 -9 8 22 -14
91 -32 98 -8 3 -18 24 -21 46 -4 23 -14 45 -24 50 -10 5 -21 26 -25 47 -4 20
-18 50 -31 66 -13 16 -24 38 -24 50 0 12 -11 38 -24 57 -12 19 -26 51 -30 71
-3 20 -15 44 -25 53 -10 10 -22 37 -25 60 -4 24 -16 52 -26 61 -11 10 -20 27
-20 37 0 33 -105 211 -184 312 -40 51 -354 302 -476 381 -311 201 -347 219
-383 193z"/>
<path d="M7742 8145 c-24 -7 -51 -20 -60 -28 -9 -8 -32 -19 -50 -25 -18 -6
-45 -20 -59 -32 -14 -11 -40 -20 -57 -20 -20 0 -36 -7 -43 -20 -7 -10 -31 -24
-53 -30 -50 -13 -107 -50 -115 -72 -8 -22 -35 -24 -35 -3 0 19 -14 19 -29 1
-6 -7 -38 -21 -70 -30 -33 -9 -61 -21 -63 -27 -2 -5 -27 -16 -57 -24 -29 -7
-60 -20 -70 -28 -9 -8 -32 -18 -51 -22 -41 -9 -154 -67 -231 -118 -68 -45
-301 -248 -399 -348 -42 -42 -83 -94 -92 -115 -22 -52 -68 -219 -68 -248 0
-23 45 -142 61 -163 13 -14 76 2 104 27 11 10 37 23 57 30 21 6 41 17 45 24 5
7 24 18 44 25 20 6 44 20 54 31 9 10 30 22 45 25 15 3 36 15 46 26 9 10 23 19
30 19 7 0 26 11 42 25 16 13 40 29 53 35 13 6 40 22 59 36 118 85 145 103 168
113 12 6 22 15 22 20 0 6 15 18 33 27 36 19 158 119 170 140 4 8 13 14 19 14
6 0 28 15 47 34 88 83 147 133 164 139 9 4 17 13 17 20 0 8 11 19 25 25 14 6
25 16 25 21 0 10 21 35 79 96 16 17 63 73 104 125 42 52 85 104 97 116 11 12
20 25 20 30 1 5 14 25 30 44 17 19 30 42 30 52 0 13 8 18 28 19 26 0 26 1 -8
14 -44 17 -55 17 -108 0z"/>
<path d="M7928 8132 c-10 -2 -18 -6 -18 -8 0 -16 31 -74 39 -74 5 0 12 -8 15
-17 4 -10 28 -42 54 -71 26 -29 63 -71 82 -94 149 -174 379 -398 408 -398 6 0
15 -7 19 -15 5 -9 43 -42 83 -75 41 -33 88 -71 105 -85 16 -14 34 -25 40 -25
6 0 21 -11 33 -25 12 -14 28 -25 37 -25 8 0 19 -9 25 -20 6 -11 17 -20 24 -20
7 0 28 -12 47 -26 56 -42 142 -94 156 -94 7 0 13 -4 13 -10 0 -10 31 -28 120
-71 25 -12 47 -26 50 -30 3 -5 24 -16 45 -25 22 -9 47 -22 55 -29 8 -7 26 -16
40 -20 14 -4 41 -17 60 -30 19 -12 47 -26 62 -29 37 -9 48 15 48 106 0 40 4
87 9 104 13 44 -15 105 -131 295 -53 85 -105 174 -117 196 -17 35 -36 50 -128
100 -127 70 -228 118 -264 126 -14 4 -36 16 -49 27 -13 11 -35 23 -49 26 -14
3 -49 16 -76 30 -28 13 -59 24 -70 24 -11 0 -37 9 -58 20 -20 11 -42 20 -47
20 -6 0 -40 14 -75 30 -35 17 -70 30 -77 30 -7 0 -26 7 -43 16 -34 18 -143 60
-195 76 -19 5 -46 20 -60 32 -35 32 -166 68 -212 58z"/>
<path d="M9912 14182 c-18 -2 -36 -10 -38 -17 -4 -9 24 -44 68 -89 100 -103
197 -210 253 -279 52 -65 73 -90 123 -145 19 -20 42 -52 52 -72 10 -19 27 -42
37 -51 10 -9 49 -59 87 -111 l68 -95 272 -7 c183 -5 286 -12 316 -21 25 -7 99
-19 164 -25 66 -7 147 -20 180 -30 34 -11 86 -22 116 -26 30 -4 61 -10 69 -14
24 -13 62 -129 81 -246 9 -61 23 -120 29 -132 6 -12 16 -97 21 -189 6 -93 13
-181 16 -198 3 -16 9 -105 13 -196 7 -162 8 -168 35 -204 15 -20 40 -41 54
-46 14 -6 32 -19 39 -29 8 -11 20 -20 27 -20 7 0 27 -13 44 -30 18 -16 36 -30
40 -30 5 0 21 -10 35 -22 14 -13 38 -32 53 -43 14 -11 38 -30 53 -42 14 -13
76 -64 136 -114 131 -109 125 -104 198 -174 32 -30 62 -55 67 -55 5 0 11 -9
15 -19 3 -11 16 -23 28 -27 12 -3 30 -13 40 -22 14 -12 20 -13 30 -3 15 15 12
270 -4 371 -6 36 -15 110 -19 165 -24 270 -30 315 -43 347 -8 19 -18 77 -22
129 -4 52 -16 121 -27 153 -10 32 -23 94 -28 137 -5 43 -16 91 -23 106 -8 15
-20 64 -27 108 -7 44 -18 92 -26 107 -8 15 -21 59 -29 98 -8 39 -21 80 -29 93
-8 12 -19 49 -25 81 -6 33 -17 66 -25 75 -8 9 -19 43 -26 76 -7 32 -18 68 -25
80 -8 11 -19 43 -26 70 -6 28 -17 56 -23 64 -6 7 -18 34 -27 60 -12 36 -26 53
-63 79 -27 17 -60 32 -75 32 -14 0 -43 9 -64 20 -21 11 -61 25 -90 32 -28 6
-61 17 -73 24 -11 8 -47 19 -79 25 -32 6 -68 17 -79 24 -12 8 -52 19 -89 25
-38 6 -78 17 -90 24 -12 8 -49 17 -82 21 -33 4 -76 14 -95 22 -19 8 -75 20
-125 28 -49 7 -109 21 -133 29 -23 8 -77 18 -120 22 -42 3 -106 14 -142 24
-36 10 -116 21 -179 24 -63 4 -141 13 -174 22 -43 11 -136 17 -321 22 -144 4
-276 6 -294 4z"/>
<path d="M5310 14140 c-58 -4 -136 -15 -175 -23 -38 -9 -122 -21 -186 -26 -63
-5 -135 -17 -160 -25 -24 -8 -89 -20 -144 -27 -55 -6 -111 -17 -125 -24 -14
-7 -72 -20 -129 -30 -58 -9 -114 -23 -125 -30 -12 -7 -48 -16 -81 -20 -33 -4
-77 -15 -97 -25 -20 -11 -65 -24 -100 -30 -35 -6 -73 -18 -84 -25 -12 -8 -48
-21 -80 -29 -87 -22 -184 -55 -224 -75 -19 -10 -53 -21 -75 -26 -66 -12 -123
-54 -136 -100 -6 -22 -19 -54 -30 -71 -10 -17 -19 -43 -19 -56 0 -14 -11 -45
-24 -69 -12 -25 -26 -66 -30 -92 -4 -27 -16 -63 -26 -80 -10 -18 -21 -54 -25
-82 -4 -27 -15 -63 -25 -80 -9 -16 -20 -57 -24 -89 -4 -33 -13 -73 -21 -90 -8
-17 -22 -67 -29 -111 -8 -44 -21 -98 -29 -121 -8 -23 -18 -72 -22 -110 -4 -38
-13 -84 -21 -101 -15 -37 -34 -164 -34 -227 0 -23 -7 -62 -15 -87 -9 -26 -21
-132 -30 -259 -8 -118 -19 -240 -24 -270 -13 -77 -14 -323 0 -337 15 -15 73
17 122 70 23 24 50 46 60 50 11 4 21 16 24 27 3 11 11 20 19 20 7 0 19 8 26
19 10 15 191 173 255 224 8 7 28 24 43 40 16 15 31 27 35 27 4 0 22 12 41 28
66 54 98 77 116 84 10 4 18 12 18 17 0 6 15 18 33 27 35 18 53 35 80 76 14 23
17 52 17 170 0 230 18 527 34 573 8 22 20 87 26 144 6 57 17 117 25 135 7 17
19 50 26 74 13 46 26 52 134 67 28 4 66 14 85 22 19 8 93 21 164 29 70 8 151
21 180 29 36 11 116 17 276 21 326 7 296 -1 366 100 58 83 120 169 150 209 8
11 31 41 51 68 20 26 39 47 43 47 5 0 17 15 27 33 11 17 51 68 90 113 99 114
99 115 186 204 107 110 106 110 -122 108 -97 0 -223 -4 -281 -8z"/>
<path d="M12730 7285 c-7 -8 -18 -15 -25 -15 -6 0 -34 -24 -62 -52 -28 -29
-72 -73 -99 -97 -101 -91 -193 -171 -198 -171 -2 0 -25 -20 -50 -45 -26 -25
-51 -45 -56 -45 -5 0 -17 -11 -28 -25 -11 -14 -24 -25 -28 -25 -5 0 -24 -14
-42 -30 -19 -16 -42 -32 -53 -35 -10 -4 -19 -10 -19 -15 0 -9 -118 -90 -130
-90 -4 0 -16 -17 -28 -39 -19 -33 -22 -52 -20 -152 0 -63 -4 -154 -11 -204 -6
-49 -16 -164 -21 -255 -6 -91 -17 -184 -25 -207 -8 -22 -17 -72 -21 -110 -8
-89 -52 -221 -77 -235 -11 -6 -54 -14 -95 -20 -41 -5 -87 -15 -103 -24 -16 -8
-75 -19 -131 -24 -57 -6 -130 -17 -163 -25 -97 -22 -130 -25 -345 -31 -281 -7
-279 -6 -315 -57 -16 -23 -38 -56 -48 -74 -9 -18 -22 -33 -27 -33 -6 0 -10 -7
-10 -15 0 -8 -13 -28 -30 -45 -16 -17 -30 -35 -30 -40 0 -5 -12 -23 -27 -39
-16 -17 -37 -42 -48 -57 -11 -14 -32 -40 -47 -58 -15 -17 -55 -65 -89 -106
-33 -41 -67 -82 -75 -90 -63 -69 -127 -138 -172 -186 -52 -55 -53 -57 -35 -76
17 -19 26 -20 228 -13 216 6 358 19 410 35 17 5 89 14 160 20 72 6 162 19 200
29 39 11 102 22 140 26 39 4 94 16 124 26 29 10 81 21 115 25 33 3 81 15 106
25 25 10 83 25 129 33 46 8 87 20 91 25 3 6 33 16 66 22 32 6 77 19 99 29 22
10 60 21 85 25 25 4 59 15 75 25 17 10 48 21 70 25 22 4 55 16 73 26 19 11 54
24 79 29 25 6 65 22 89 36 36 21 46 34 58 74 8 27 21 59 29 72 8 12 18 41 22
63 4 21 15 55 24 75 10 19 21 52 25 72 4 20 15 56 25 80 11 24 22 63 26 88 4
25 12 54 19 65 7 11 18 54 25 95 7 41 19 87 27 102 8 15 19 64 26 110 6 46 17
96 25 111 8 16 19 69 24 118 5 50 15 102 23 117 8 15 17 68 21 117 4 50 16
133 26 185 11 52 24 165 29 250 5 85 11 164 14 175 10 35 24 371 17 405 -8 38
-22 47 -41 25z"/>
<path d="M2992 7212 c-11 -28 -5 -218 11 -342 9 -63 18 -164 22 -225 7 -125
23 -253 35 -275 5 -9 13 -65 19 -125 6 -61 19 -137 30 -170 10 -33 22 -91 26
-130 4 -38 15 -89 25 -112 10 -24 21 -64 25 -90 7 -60 26 -135 36 -148 4 -5
13 -39 19 -75 6 -35 18 -76 25 -90 7 -14 18 -52 25 -85 6 -33 18 -70 26 -82 8
-12 20 -49 28 -81 7 -32 20 -70 29 -83 8 -13 20 -46 26 -74 7 -27 18 -59 26
-71 7 -12 17 -38 21 -59 5 -30 15 -43 53 -66 25 -16 64 -34 86 -40 22 -5 60
-18 85 -28 55 -23 152 -56 240 -80 36 -10 74 -23 85 -28 11 -6 43 -14 70 -18
28 -3 70 -15 95 -25 25 -10 70 -22 100 -25 30 -4 75 -15 100 -25 25 -9 76 -21
115 -24 38 -4 75 -12 82 -18 7 -6 73 -19 145 -28 73 -10 167 -26 208 -34 41
-9 129 -20 195 -25 66 -6 140 -15 165 -20 74 -17 519 -26 563 -12 20 7 37 17
37 22 0 5 -35 46 -77 91 -43 44 -101 106 -130 137 -29 31 -63 67 -76 81 -39
41 -220 261 -257 313 -19 27 -44 59 -55 70 -11 12 -25 32 -32 44 -6 12 -16 28
-22 35 -6 7 -21 27 -35 43 l-24 30 -274 6 c-187 4 -296 11 -348 22 -41 9 -115
19 -165 23 -49 4 -110 15 -135 24 -25 10 -76 21 -114 25 -45 5 -75 14 -87 26
-24 24 -65 159 -74 244 -4 39 -13 85 -21 103 -7 19 -18 84 -24 145 -6 62 -13
134 -15 161 -14 135 -25 290 -25 371 0 106 -17 143 -80 175 -22 11 -40 24 -40
29 0 4 -11 13 -25 19 -13 6 -32 18 -42 27 -52 46 -107 85 -119 85 -8 0 -14 4
-14 8 0 5 -30 33 -67 63 -83 66 -269 225 -304 259 -77 76 -131 120 -144 120
-8 0 -15 4 -15 9 0 18 -31 21 -38 3z"/>
<path d="M6130 3331 c-78 -24 -155 -97 -185 -174 -34 -91 -8 -223 58 -295 36
-39 123 -91 204 -124 202 -81 303 -193 311 -344 4 -62 0 -81 -23 -133 -47
-105 -146 -176 -259 -188 -143 -15 -287 90 -326 235 -8 33 -15 42 -27 38 -8
-3 -26 -9 -39 -12 -22 -6 -24 -10 -19 -38 22 -108 116 -224 223 -274 51 -24
69 -27 167 -27 101 0 115 2 166 29 71 35 149 114 186 186 26 51 28 64 28 170
0 106 -2 120 -28 172 -52 106 -186 213 -327 263 -65 23 -165 94 -193 137 -53
83 -44 174 27 244 62 63 137 79 212 45 43 -20 104 -77 104 -98 0 -16 26 -16
63 0 l28 12 -24 45 c-27 51 -101 112 -157 129 -42 12 -132 13 -170 2z"/>
<path d="M11307 3326 c-79 -29 -149 -102 -173 -182 -46 -155 29 -292 205 -375
171 -81 193 -93 242 -132 196 -155 173 -421 -46 -535 -42 -22 -63 -26 -130
-26 -93 0 -152 25 -219 91 -41 41 -86 124 -86 161 0 26 -2 26 -47 10 -42 -15
-43 -41 -3 -126 36 -77 109 -150 187 -189 53 -26 67 -28 168 -28 101 0 115 2
168 28 125 62 210 185 223 322 18 197 -100 362 -329 456 -186 77 -257 149
-257 259 0 130 122 224 248 191 41 -11 94 -54 123 -100 15 -24 42 -25 77 -2
20 13 -17 80 -69 124 -73 63 -192 85 -282 53z"/>
<path d="M2730 2665 l0 -665 40 0 40 0 2 610 3 609 82 -107 c45 -59 157 -205
248 -324 92 -120 169 -218 173 -217 4 0 117 146 252 323 l245 323 3 -608 2
-609 40 0 40 0 0 665 0 666 -57 -3 -58 -3 -230 -302 c-126 -166 -232 -304
-235 -307 -3 -2 -111 135 -240 304 l-235 309 -57 1 -58 0 0 -665z"/>
<path d="M4100 3326 c0 -2 104 -183 230 -402 l230 -398 0 -263 0 -263 40 0 40
0 0 268 0 267 225 390 c124 214 225 393 225 398 0 4 -21 7 -47 5 l-48 -3 -185
-321 c-102 -176 -192 -331 -200 -343 -15 -22 -22 -10 -215 323 l-199 346 -48
0 c-26 0 -48 -2 -48 -4z"/>
<path d="M6770 3285 l0 -45 165 0 165 0 0 -620 0 -620 45 0 45 0 0 620 0 620
165 0 165 0 0 45 0 45 -375 0 -375 0 0 -45z"/>
<path d="M7876 2678 c-132 -359 -241 -659 -244 -665 -3 -9 9 -13 41 -13 l45 0
30 78 c16 42 64 173 107 290 l78 212 222 0 222 0 105 -287 104 -288 47 -3 47
-3 -34 93 c-18 51 -127 351 -241 666 l-208 572 -41 0 -41 0 -239 -652z m348
327 c35 -99 78 -217 95 -262 l30 -83 -193 0 -193 0 96 264 c53 145 97 263 98
262 1 -1 31 -83 67 -181z"/>
<path d="M8870 2665 l0 -665 40 0 40 0 0 230 0 230 118 0 117 0 146 -228 146
-227 51 -3 c29 -2 52 0 52 4 0 4 -65 107 -145 230 -80 123 -145 225 -145 228
0 3 20 14 45 25 118 52 210 154 246 273 18 57 21 87 17 160 -5 77 -11 100 -42
163 -60 120 -170 206 -304 234 -29 6 -127 11 -217 11 l-165 0 0 -665z m395
560 c115 -34 211 -135 241 -253 40 -159 -46 -327 -204 -400 -51 -23 -72 -26
-204 -30 l-148 -4 0 351 0 351 133 0 c88 0 150 -5 182 -15z"/>
<path d="M9850 2665 l0 -665 45 0 45 0 0 310 0 310 250 0 250 0 0 45 0 45
-250 0 -250 0 0 265 0 265 250 0 250 0 0 45 0 45 -295 0 -295 0 0 -665z"/>
<path d="M10680 2665 l0 -665 45 0 45 0 0 665 0 665 -45 0 -45 0 0 -665z"/>
<path d="M12020 2665 l0 -665 45 0 45 0 0 310 0 310 330 0 330 0 0 -310 0
-310 40 0 40 0 0 665 0 665 -40 0 -40 0 0 -310 0 -310 -330 0 -330 0 0 310 0
310 -45 0 -45 0 0 -665z"/>
<path d="M3385 1687 c-103 -35 -182 -106 -215 -194 -31 -84 -28 -192 9 -268
35 -74 88 -126 164 -160 52 -24 68 -27 145 -23 102 4 157 26 222 90 66 63 95
136 95 238 0 73 -4 93 -28 141 -32 66 -100 132 -164 161 -57 25 -174 33 -228
15z m210 -62 c51 -25 115 -88 140 -140 15 -30 20 -60 20 -120 -1 -96 -20 -139
-90 -204 -60 -56 -106 -74 -185 -75 -114 -2 -214 64 -264 173 -25 56 -27 158
-3 213 30 71 112 145 187 169 42 14 152 5 195 -16z"/>
<path d="M5400 1687 c-91 -26 -172 -97 -214 -186 -17 -36 -21 -65 -21 -136 1
-78 4 -97 28 -143 33 -64 91 -123 149 -153 32 -17 65 -24 135 -27 81 -4 97 -2
146 21 71 32 126 83 163 149 27 49 29 61 29 153 0 83 -4 108 -22 145 -31 63
-98 128 -160 157 -64 29 -169 38 -233 20z m215 -65 c50 -25 119 -98 141 -149
24 -55 22 -157 -3 -214 -84 -187 -314 -233 -458 -91 -79 78 -105 190 -68 298
21 62 101 145 163 167 61 23 171 17 225 -11z"/>
<path d="M10055 1686 c-16 -7 -41 -26 -55 -41 -21 -23 -25 -36 -25 -90 0 -58
3 -67 32 -97 l33 -34 -35 -18 c-20 -11 -49 -40 -65 -64 -25 -39 -30 -55 -30
-109 0 -74 14 -107 64 -151 87 -76 245 -47 293 54 9 19 23 34 31 34 7 0 27 14
44 30 26 27 30 36 25 68 -8 45 -47 82 -88 82 -24 0 -29 -4 -29 -25 0 -19 5
-25 23 -25 47 0 63 -47 25 -74 -20 -14 -24 -14 -47 0 -15 9 -37 27 -52 40 -52
49 -129 19 -129 -49 0 -44 18 -67 55 -70 39 -3 48 33 13 48 -30 13 -30 39 0
43 15 2 36 -8 61 -31 l39 -35 -29 -35 c-54 -66 -139 -72 -204 -16 -86 76 -64
198 47 253 29 14 62 26 75 26 16 0 23 6 23 20 0 14 -10 22 -38 30 -43 11 -75
41 -91 83 -13 34 -1 67 35 96 39 30 79 27 116 -9 49 -49 88 -28 47 25 -40 50
-106 67 -164 41z"/>
<path d="M10886 1690 c-63 -19 -105 -95 -91 -162 11 -47 63 -98 135 -130 70
-31 113 -67 136 -110 50 -97 -47 -221 -158 -203 -48 8 -106 61 -114 104 -5 23
-11 30 -21 27 -8 -4 -19 -6 -25 -6 -15 0 -1 -49 28 -92 13 -21 42 -47 64 -58
47 -24 138 -27 179 -6 58 30 111 115 111 176 0 80 -64 159 -166 206 -120 54
-155 124 -95 185 18 17 40 29 56 29 32 0 81 -24 88 -45 8 -19 36 -20 43 -1 9
23 -24 63 -67 80 -43 18 -60 18 -103 6z"/>
<path d="M2770 1365 l0 -325 25 0 25 0 0 150 0 150 120 0 120 0 0 25 0 25
-120 0 -120 0 0 125 0 125 120 0 120 0 0 25 0 25 -145 0 -145 0 0 -325z"/>
<path d="M3920 1365 l0 -325 25 0 25 0 0 110 0 111 56 -3 56 -3 68 -105 c54
-84 73 -106 94 -108 14 -2 26 2 26 8 0 6 -29 54 -65 108 -67 99 -76 122 -50
122 23 0 84 59 107 103 16 32 19 54 16 107 -5 86 -38 138 -111 175 -44 22 -64
25 -149 25 l-98 0 0 -325z m219 261 c44 -23 88 -80 96 -125 9 -53 -21 -119
-71 -157 -32 -25 -48 -29 -116 -33 l-78 -3 0 166 0 166 70 0 c42 0 82 -6 99
-14z"/>
<path d="M4670 1365 l0 -325 108 0 c131 0 172 11 224 58 51 46 68 85 68 159 0
69 -29 134 -73 165 -18 12 -34 23 -36 24 -2 2 6 15 18 30 29 37 29 121 0 158
-37 47 -68 56 -194 56 l-115 0 0 -325z m256 251 c21 -18 28 -32 28 -61 0 -29
-7 -43 -28 -61 -24 -21 -37 -24 -117 -24 l-89 0 0 85 0 85 89 0 c80 0 93 -3
117 -24z m2 -210 c100 -53 126 -172 55 -257 -39 -45 -79 -59 -178 -59 l-85 0
0 165 0 165 90 0 c59 0 101 -5 118 -14z"/>
<path d="M5940 1365 l0 -328 108 6 c129 7 186 25 247 79 67 59 97 125 103 224
6 108 -14 167 -79 238 -70 77 -125 98 -266 104 l-113 5 0 -328z m226 260 c65
-19 126 -72 158 -137 38 -75 37 -175 -2 -249 -50 -96 -149 -149 -279 -149
l-63 0 0 275 0 275 68 0 c38 0 91 -7 118 -15z"/>
<path d="M6480 1686 c0 -3 50 -90 110 -195 l110 -190 0 -131 0 -130 25 0 25 0
0 134 0 135 105 181 c58 100 105 186 105 191 0 5 -11 9 -24 9 -20 0 -33 -17
-79 -97 -30 -54 -73 -129 -95 -166 l-40 -68 -94 163 c-81 142 -97 163 -121
166 -15 2 -27 1 -27 -2z"/>
<path d="M7530 1365 c0 -318 0 -325 20 -325 20 0 20 7 20 296 l0 297 118 -156
c64 -86 122 -155 127 -153 6 1 63 71 128 155 l117 153 0 -296 c0 -289 0 -296
20 -296 20 0 20 7 20 326 l0 325 -32 -3 c-28 -3 -45 -21 -142 -148 l-111 -146
-113 148 c-101 132 -116 148 -142 148 l-30 0 0 -325z"/>
<path d="M8230 1365 l0 -325 25 0 25 0 0 325 0 325 -25 0 -25 0 0 -325z"/>
<path d="M8420 1365 l0 -325 25 0 25 0 2 277 3 277 198 -277 c183 -256 200
-277 227 -277 l30 0 0 325 c0 317 0 325 -20 325 -19 0 -20 -8 -22 -287 l-3
-287 -205 287 c-184 258 -207 287 -232 287 l-28 0 0 -325z"/>
<path d="M9070 1365 l0 -328 108 6 c142 8 193 26 263 96 74 74 93 130 87 250
-7 131 -55 209 -165 263 -59 29 -76 32 -179 36 l-114 5 0 -328z m229 259 c146
-43 227 -224 164 -365 -48 -108 -131 -159 -270 -167 l-83 -5 0 277 0 276 68 0
c38 0 92 -7 121 -16z"/>
<path d="M11240 1365 c0 -318 0 -325 20 -325 19 0 20 7 20 109 l0 108 86 6
c71 4 93 10 132 34 109 67 133 217 50 317 -48 59 -95 76 -210 76 l-98 0 0
-325z m217 259 c50 -24 85 -76 91 -134 4 -40 0 -57 -22 -94 -35 -60 -90 -86
-179 -86 l-67 0 0 165 0 165 71 0 c45 0 84 -6 106 -16z"/>
<path d="M11720 1365 c0 -318 0 -325 20 -325 20 0 20 7 20 325 0 318 0 325
-20 325 -20 0 -20 -7 -20 -325z"/>
<path d="M11910 1366 c0 -319 0 -326 20 -326 19 0 20 7 20 110 l0 110 58 0 57
0 69 -110 c62 -98 72 -110 98 -110 27 0 28 2 17 23 -7 12 -33 54 -59 92 -77
116 -76 108 -24 141 130 82 133 269 6 358 -41 29 -50 31 -153 34 l-109 4 0
-326z m238 246 c39 -28 72 -89 72 -132 0 -64 -51 -136 -113 -159 -16 -6 -57
-11 -93 -11 l-64 0 0 166 0 166 83 -3 c66 -3 88 -8 115 -27z"/>
<path d="M12390 1365 c0 -318 0 -325 20 -325 20 0 20 7 20 325 0 318 0 325
-20 325 -20 0 -20 -7 -20 -325z"/>
<path d="M12540 1665 c0 -25 1 -25 80 -25 l80 0 0 -300 c0 -293 0 -300 20
-300 20 0 20 7 20 300 l0 300 85 0 c84 0 85 0 85 25 l0 25 -185 0 -185 0 0
-25z"/>
<path d="M7034 1040 l-22 -80 25 0 c20 0 29 12 59 76 19 41 34 77 34 80 0 2
-17 4 -38 4 l-37 0 -21 -80z"/>
</g>
</svg>
